/* XPM */
static char * clock3_xpm[] = {
"64 64 191 2",
"  	c None",
". 	c #6B7993",
"+ 	c #687690",
"@ 	c #677690",
"# 	c #687691",
"$ 	c #687590",
"% 	c #677590",
"& 	c #64728D",
"* 	c #65728D",
"= 	c #64738D",
"- 	c #65738D",
"; 	c #64728E",
"> 	c #64738E",
", 	c #61708A",
"' 	c #616F8A",
") 	c #61708B",
"! 	c #606F8A",
"~ 	c #60708A",
"{ 	c #60708B",
"] 	c #5E6C88",
"^ 	c #5D6D87",
"/ 	c #5E6D87",
"( 	c #5D6C87",
"_ 	c #5E6C87",
": 	c #5D6D88",
"< 	c #5D6C88",
"[ 	c #5A6984",
"} 	c #5B6984",
"| 	c #5A6A84",
"1 	c #5A6A85",
"2 	c #5A6985",
"3 	c #566682",
"4 	c #576781",
"5 	c #576681",
"6 	c #566681",
"7 	c #576682",
"8 	c #576782",
"9 	c #566781",
"0 	c #52627D",
"a 	c #52617D",
"b 	c #52627C",
"c 	c #51617C",
"d 	c #52617C",
"e 	c #51617D",
"f 	c #51627D",
"g 	c #51627C",
"h 	c #4C5C78",
"i 	c #4C5D78",
"j 	c #4C5D77",
"k 	c #4D5C78",
"l 	c #4C5C77",
"m 	c #4D5D78",
"n 	c #4D5C77",
"o 	c #465773",
"p 	c #475773",
"q 	c #475873",
"r 	c #475772",
"s 	c #465772",
"t 	c #465873",
"u 	c #41526E",
"v 	c #41536E",
"w 	c #41526F",
"x 	c #42526E",
"y 	c #01193B",
"z 	c #01193A",
"A 	c #02193A",
"B 	c #01183B",
"C 	c #02193B",
"D 	c #01183A",
"E 	c #02183A",
"F 	c #021939",
"G 	c #011939",
"H 	c #021839",
"I 	c #011839",
"J 	c #021938",
"K 	c #021838",
"L 	c #031839",
"M 	c #031939",
"N 	c #031838",
"O 	c #031938",
"P 	c #021837",
"Q 	c #031837",
"R 	c #031937",
"S 	c #021937",
"T 	c #000B1A",
"U 	c #000813",
"V 	c #000814",
"W 	c #000914",
"X 	c #000913",
"Y 	c #011634",
"Z 	c #011533",
"` 	c #011532",
" .	c #001533",
"..	c #011633",
"+.	c #001633",
"@.	c #011733",
"#.	c #001733",
"$.	c #011734",
"%.	c #011834",
"&.	c #001734",
"*.	c #011835",
"=.	c #021A3A",
"-.	c #021A3B",
";.	c #011A3B",
">.	c #021A3C",
",.	c #021B3C",
"'.	c #011B3B",
").	c #021C3C",
"!.	c #011B3C",
"~.	c #021B3D",
"{.	c #011C3C",
"].	c #021C3D",
"^.	c #021B3B",
"/.	c #011A3C",
"(.	c #011C3D",
"_.	c #021D3D",
":.	c #011D3D",
"<.	c #011B3D",
"[.	c #021C3E",
"}.	c #021D3E",
"|.	c #011D3E",
"1.	c #021E3E",
"2.	c #011E3E",
"3.	c #011D3F",
"4.	c #021E3F",
"5.	c #011F3E",
"6.	c #021D3C",
"7.	c #011C3E",
"8.	c #011E3F",
"9.	c #011F3F",
"0.	c #021F3E",
"a.	c #021F3F",
"b.	c #021F40",
"c.	c #022040",
"d.	c #012040",
"e.	c #011F40",
"f.	c #01203F",
"g.	c #021D3F",
"h.	c #012140",
"i.	c #012041",
"j.	c #012141",
"k.	c #011E3D",
"l.	c #02203F",
"m.	c #022140",
"n.	c #022141",
"o.	c #012242",
"p.	c #012241",
"q.	c #022041",
"r.	c #012142",
"s.	c #011E40",
"t.	c #012342",
"u.	c #002341",
"v.	c #002242",
"w.	c #012343",
"x.	c #002443",
"y.	c #002343",
"z.	c #002342",
"A.	c #012442",
"B.	c #012443",
"C.	c #021F41",
"D.	c #012444",
"E.	c #012344",
"F.	c #002444",
"G.	c #002241",
"H.	c #012544",
"I.	c #002544",
"J.	c #012543",
"K.	c #002442",
"L.	c #002344",
"M.	c #012644",
"N.	c #002545",
"O.	c #012545",
"P.	c #012645",
"Q.	c #002644",
"R.	c #002645",
"S.	c #002746",
"T.	c #002745",
"U.	c #012745",
"V.	c #012846",
"W.	c #012646",
"X.	c #002846",
"Y.	c #002543",
"Z.	c #002744",
"`.	c #002646",
" +	c #012845",
".+	c #002847",
"++	c #012746",
"@+	c #012847",
"#+	c #002947",
"$+	c #002845",
"%+	c #002946",
". . . . . . . . . . . . . . . . . . . . . . . . . . . . . . . . . . . . . . . . . . . . . . . . . . . . . . . . . . . . . . . . ",
"+ @ + + + # @ @ + @ + + @ + @ + + + $ + $ @ + + % @ + + @ + + @ @ + $ @ @ + + @ + $ @ @ + + % @ # + + $ + + % @ @ + + + @ + + + ",
"& * = = = & = = = - ; - - & - = = & - = * = = - = - = & = > & - = = = - * = = = - = = = & - = = = & = = = - = & & - = = * & = = ",
", ' ' ) , ' , ! , ' , ' , , ' ' , , , , ' ' ' ' , , ' , ) ! ' , , ' , ' ' ' ~ , , ~ ~ ~ ' { , ' , ~ , , ! ' , ' , , ~ ' ' ! ~ , ",
"] ^ ^ / ^ ( _ ( ^ / _ ( _ ^ : : ( _ ^ ( / ( / _ ( _ ( ( ( _ ^ / ] ^ _ ( / _ / _ _ / / _ ( ( / / ( / ^ ( ( ( ( / < _ / / ( ( ( / ",
"[ [ [ [ [ [ } [ | [ [ [ | [ 1 [ [ [ [ | 2 | [ [ [ [ [ [ [ [ [ [ [ | [ 1 2 | | | } [ } | [ [ [ [ | [ [ [ | [ [ [ [ [ [ } | [ [ [ ",
"3 4 5 6 7 6 5 6 5 5 5 5 8 5 6 6 8 6 6 6 7 5 5 5 6 6 5 5 7 5 6 5 6 9 6 5 4 9 5 5 5 5 6 3 6 5 5 5 5 6 5 5 5 6 5 3 6 5 5 5 4 3 3 5 ",
"0 a b b 0 c b 0 b d a c e 0 f a a c a 0 0 a 0 e e c b g d a 0 e c a a a c f 0 e g g c f d 0 0 0 0 d 0 0 c e g a d g g c g e a c ",
"h h i h h h i h j h j i h j i h j i h h k l l l h l m i h h m h h h l i l h h h h h h h k h i h h i l l h j h n j j j h n h i i ",
"o o o p q r s o p o p p o o p p o o p p o p o o p p p t p o p o o p o q o s t o o r p p p o t o p o o o q o p o o p q p p p o o ",
"u u u u v u w u u u v u x u u u v u u u u u u x x u u u u u w u x v u u u w u u v u u x u u u u u u u u u u u u u u u u x w u u ",
"y z y y y A y B z y y y z y C y y y y C y C y y C y y z y y y C y y z B y z z A z y y C D B z z y y z y y y y B y z z z y y y z ",
"z z A z z z C E B y C y z z A y B C y A z z y B C B y A y D C A A y y z D y y C z z A z z z y D y C D C B y z E y z y D D C z y ",
"A D C E z z A C z z z E y E D z D y z A A z A y A E D D A C z A y A z z z C z A D z z A A D y A A z z y z E y A A C D A B z A E ",
"A A A A D A z A E A F z z z E z z A D E z A A D A A z A A z A z A D E z F z E A E z z A D A A z D z A A A E z A D z z D A E F z ",
"G E A E E F A A z H A H E F z A F G E A z A A A A z F F F A G F G A A A A z E z D z F A E G E E A A H F F F E z A A F z A G E A ",
"F I z F H E G A A A F A F H H H H H H E H F F F F A H H D E A F H E F H G F H A I A H H F I D F H F F E A G G F z E H G E F H F ",
"H F H F H F F F F H F A H F H H F H F I H F H F F H D F H H F F H H A F H H F H F F F F H F H H H H F H H H F D E F F F F H F F ",
"H J K H L H J M F K H L K M N H F F K J F H H H H F K J F O F H N M J F F J H H K F K F H K K F J H F F H L F O F F F F F K J H ",
"K N K N J J F N K K K N K J N N N K K K O N N N L K N K N K K K J O K K O N O J N K N H K N N N O N K N K N K N N K F F L K N N ",
"N P Q N N P N Q Q N Q Q N N N Q Q N Q K O Q Q R N N S Q N K P P R N K Q K N Q N P N N K N N Q N N K K Q Q P N N Q J P R Q O N K ",
"Q Q Q Q Q Q Q Q Q Q Q Q Q Q Q Q Q Q Q Q Q Q Q Q Q Q Q Q Q Q Q Q Q Q Q Q Q Q Q Q Q Q Q Q Q Q Q Q Q Q Q Q Q Q Q Q Q Q Q Q Q Q Q Q ",
"T U U U U U U U U U U U U U U U U U U U U U U U U U U U U U U U U U U U U U U U U U U U U U U U U U U U V V U V W X W X W W W T ",
"Y Z Z Z Z Z Z Z Z Z Z Z Z Z Z Z Z Z Z Z Z Z Z Z Z Z Z Z Z Z Z ` ` ` ` Z Z Z  ...+.....+.....+.......Y @.@...#.$.$.%.$.$.$.%.&.*.",
"C C C C C C C C C C C C C C C C C C C C C C C C C C A A A =.=.A =.=.C =.-.-.-.-.;.>.-.,.,.-.>.,.'.,.>.,.,.,.).,.!.~.).{.].].{.].",
"C C C C C C C C C C C C C C C C C C C C C A A A A C C -.-.-.-.=.-.-.-.-.-.;.-.>.,.^.^.^.,./.!.'.,.,.).,.~.(.].~.~.].(.].(._.(.:.",
"C C C C C C C C C C C C C C C C A =.C =.A C C -.=.-.-.;.;.-.-.;.^.>.>.;.,.,.,.,.,.,.!.,.).,.,.<.{.~.(.).(.,.].].].]._._.:.(._._.",
"C C C C C C C C C C C A A =.C A -.-.A A -.-.-.-.-.-.;.;.-.-.,.,.,.'.,.,.,.{.,.,.,.~.~.).,.).).,.{.).(.(.:.].:.[.:.:.]._.}.|.|.}.",
"C C C C C C A C A =.=.-.A -.-.=.-.;.-.-.-.-.-.^.-.-.,./.-.-.,.,.).!.).,.,.,.).).).).).].].].].(.].:._.:.:.}._.|.|.1.|.:.2.3.2.2.",
"C A A A =.A C =.A -.-.=.-.-.;.-.^.-.^.>.>.>.,.^.!.^.,.{.,.(.,.].].{.).~.<.].].].].].].].].(._.}.}.}.|.|.}.2.}.|.4.|.}.2.1.2.1.5.",
"=.-.=.=.A =.=.C -.-.-.-.>.^.!.,.>.;.;.,.-.,.,.,.,.).,.,.{.<.).{.].].(.6.].(.(.|.|._.:.(.:.7.|.:.|.}.|.8.}.|.2.2.2.1.2.9.9.2.8.8.",
"-.-.-.-.-.-.^.-.;.-.>.^.,.^.-.,.^.,.,.,.{.,.~.!.!.{.!.].].].].].(.].:.7.}.}._.}.|.}._.|.|.}.8.}.2.1.8.2.2.4.2.4.8.2.9.5.9.8.9.9.",
"-.^.-.^.^.-.,.!.,.'.,.,.,.{.,.,.).~.,.,.].!.].(.{.).].].:.].:.:._.|._.}.|.:.}.}.1.8.3.4.}.}.2.1.1.0.2.a.4.a.8.9.8.9.b.9.c.9.9.d.",
"-.,.>.^.,.,.,.!.,.).].{.!.{.{.(.].(.).(.(.].(.].:.7.:.].|.:._._.|.}.:.2.8.|.}.2.1.8.1.2.2.8.4.8.9.8.9.9.9.a.b.9.e.9.9.e.e.f.d.d.",
"^.,.,.{.!.).!.,.].).).].].].(._.).:.].(._._.}.:._._.}._.|.|.1.4.2.1.1.g.1.1.8.8.4.2.4.8.8.8.8.a.a.9.a.e.a.d.d.e.e.f.d.d.d.d.d.h.",
",.).).,.(.(.<.].].].].(._.].].].(.7.:.|.}._.|.2.|.2.g.2.2.1.}.2.2.1.5.2.1.8.5.8.8.a.8.a.9.e.9.b.a.e.e.e.d.c.d.d.d.i.h.i.c.j.h.i.",
"].{.{.].].].(.(.].}.].(.}.(.}.}.k.}.2.}.|.4.1.1.}.}.2.2.8.4.8.2.4.8.0.8.9.9.9.b.e.e.f.e.f.e.d.d.e.d.d.d.d.d.j.h.d.i.j.i.i.j.j.j.",
"(.].].:.:.].:.:.|.(.|.}._._.|.}.3.|.}.2.|.4.4.1.2.8.8.4.9.5.9.8.4.b.9.9.9.l.d.b.b.c.d.d.d.d.d.i.d.h.i.i.j.i.i.m.n.j.j.o.j.p.j.o.",
"_._.[.].}.:.}.|.|.2.}.8.|.1.8.1.1.8.8.2.4.4.9.4.1.9.a.9.9.b.a.9.e.e.d.b.d.d.d.e.d.c.d.c.c.q.j.j.d.h.j.n.j.j.p.j.o.p.r.p.j.p.o.o.",
"_.:.:.2.1.}.8.8.2.4.1.4.8.4.4.5.8.9.4.9.8.9.s.e.9.b.e.9.9.f.d.f.f.d.d.d.d.d.d.i.d.d.i.j.j.i.j.j.n.j.p.p.r.r.j.o.o.o.j.o.o.p.t.o.",
"2.8.2.8.4.8.2.4.4.8.2.4.5.4.8.4.9.s.e.a.e.e.9.b.c.e.f.e.c.d.c.d.c.q.d.j.d.j.j.j.j.j.j.j.j.j.j.j.j.p.p.o.o.o.o.u.o.o.t.t.v.t.w.t.",
"2.g.8.1.8.1.8.8.8.a.4.8.a.a.e.9.9.a.9.9.f.d.f.d.d.d.d.c.d.h.d.d.j.h.i.j.n.j.j.j.p.o.r.p.p.p.o.r.o.o.o.t.t.t.o.w.t.w.t.t.t.w.x.y.",
"5.8.2.9.a.4.4.a.4.9.9.9.a.e.d.c.d.9.d.d.d.c.i.i.i.i.h.h.j.i.i.j.n.j.j.j.j.r.r.r.r.j.o.v.o.o.t.o.o.t.z.w.w.w.w.w.A.x.x.B.B.B.B.B.",
"8.8.9.b.9.a.b.a.e.d.9.e.f.f.e.C.i.d.d.c.d.i.j.j.h.h.j.j.j.p.j.j.j.o.p.o.p.o.p.o.o.p.z.o.o.t.t.o.t.w.w.t.A.y.w.y.x.D.E.B.B.x.F.x.",
"e.9.9.9.d.e.d.d.e.d.d.d.d.d.h.d.i.d.h.h.h.j.j.p.j.j.p.r.p.o.p.r.o.G.p.o.p.o.o.o.t.t.z.w.w.t.w.w.z.w.w.x.w.y.B.D.D.B.H.D.B.F.I.D.",
"d.c.d.c.c.d.d.i.d.d.i.h.d.i.j.m.j.j.j.j.j.j.j.G.r.p.p.o.o.G.p.t.o.t.w.z.w.t.o.t.w.t.w.B.t.B.y.D.x.B.F.B.F.D.D.F.J.I.D.I.H.H.I.H.",
"d.d.d.h.i.c.h.j.j.j.d.j.j.j.j.p.j.j.j.r.j.o.o.p.p.o.t.v.o.t.w.t.t.w.t.w.A.t.K.A.y.B.x.L.F.B.x.x.F.x.x.H.I.D.I.I.H.I.H.M.I.H.N.O.",
"c.j.d.d.j.j.j.j.j.o.j.j.j.j.p.r.r.p.o.o.o.o.t.o.t.t.w.w.t.t.t.A.A.w.w.B.w.B.B.B.B.x.x.x.I.x.D.H.I.H.I.O.H.P.H.I.M.I.M.Q.R.P.R.P.",
"h.j.j.j.j.j.j.j.p.p.j.o.o.o.o.o.t.t.w.t.o.t.v.t.t.t.t.t.z.y.y.w.x.y.B.B.F.B.D.H.B.H.F.D.H.D.H.N.O.M.O.N.N.R.P.M.P.R.R.P.R.P.S.S.",
"j.j.G.j.p.o.p.p.o.o.o.t.o.o.t.o.y.z.t.y.w.B.A.B.B.x.B.x.y.D.B.B.D.H.D.H.H.H.H.H.I.N.I.I.I.O.I.R.N.R.R.Q.P.R.T.U.U.R.T.T.S.T.S.V.",
"j.j.r.o.o.o.t.o.o.o.t.t.t.y.t.w.B.w.w.y.B.B.B.w.x.B.x.D.B.H.B.H.F.H.I.I.H.I.H.Q.H.O.I.M.P.Q.M.U.U.R.R.P.T.W.U.R.S.S.S.X.S.X.X.X.",
"o.o.t.o.t.w.y.t.t.t.t.z.x.w.w.B.w.y.D.w.F.B.B.F.H.F.D.B.Y.H.H.H.I.H.N.N.R.O.N.R.R.M.Z.T.R.U.P.U.`.T.U.U.S. +S.S.S.S.V.S.S.X.X..+",
"o.t.y.w.t.t.w.w.K.x.B.B.B.w.x.B.B.B.J.J.J.D.H.F.H.H.H.I.Q.I.O.M.R.P.R.R.R.P.P.R.R.R.U.T.S.T.++T.++++V.++X.X.X..+@+X.V..+#+X..+#+",
"t.K.t.w.w.B.x.B.B.x.B.D.D.D.x.H.H.I.H.H.H.I.H.O.N.I.I.Q.N.M.R.Q.P.U.U.T.R.S.R.R.T.++S.++S.S.$+X.S.S..+X.X.X..+.+@+#+.+%+#+#+#+#+",
"A.B.B.w.B.x.D.H.J.B.B.D.H.H.I.I.I.H.I.I.M.H.R.H.R.R.Q.Q.R.U.R.R.P.S.W.S.U.T.T.S.S.X.X.S.X.X.@+X.X..+X..+#+#+.+#+#+#+#+#+#+#+#+#+",
"D.x.D.D.D.D.H.I.Y.H.H.I.I.I.M.N.Q.R.P.R.R.P.R.M.R.T.T.U.P.U.S.T.S.S.++X.++X.S.X.S.@+.+X.@+X.X..+.+%+#+%+#+#+#+#+#+#+#+#+#+#+#+#+",
"F.J.I.B.D.H.O.N.H.Q.N.I.N.R.Q.Q.R.P.T.R.T.T.S.R.T.++++T.S.S.T.X.X.V.V.X.V.X.X..+%+.+X.#+#+#+#+#+#+#+#+#+#+#+#+#+#+#+#+#+#+#+#+#+",
"I.I.H.M.N.P.R.P.R.Q.P.P.P.U.R.U.U.U.S.W.T.T.T.S.X.X.X.S.S.S.S.X.X..+#+%+.+%+#+X.#+#+#+#+#+#+#+#+#+#+#+#+#+#+#+#+#+#+#+#+#+#+#+#+",
"O.I.H.P.H.P.R.Q.R.P.R.U.R.++S.S.++S.$+X.T.$+S.X.S.X.X..+X.%+.+X.#+.+#+%+#+#+#+#+#+#+#+#+#+#+#+#+#+#+#+#+#+#+#+#+#+#+#+#+#+#+#+#+",
"Q.R.P.R.P.P.R.U.R.T.S.S.S.T.T.X.S.X.S.X.++X.X.X.V.X.#+.+X.#+#+.+#+#+#+#+#+#+#+#+#+#+#+#+#+#+#+#+#+#+#+#+#+#+#+#+#+#+#+#+#+#+#+#+",
"T.R.S.T.`.W.S.U.T.U.++S.S.S.S.X..+V.X.X..+X.X.%+%+.+#+#+#+#+#+#+#+#+#+#+#+#+#+#+#+#+#+#+#+#+#+#+#+#+#+#+#+#+#+#+#+#+#+#+#+#+#+#+",
"R.T.S.S.S.S.++V.X.X..+V.X.V.V..+.+.+#+#+#+#+#+#+#+#+#+#+#+#+#+#+#+#+#+#+#+#+#+#+#+#+#+#+#+#+#+#+#+#+#+#+#+#+#+#+#+#+#+#+#+#+#+#+",
"S.S.S.X..+.+X.X.X.%+.+%+#+#+X.#+.+#+#+#+#+#+#+#+#+#+#+#+#+#+#+#+#+#+#+#+#+#+#+#+#+#+#+#+#+#+#+#+#+#+#+#+#+#+#+#+#+#+#+#+#+#+#+#+",
"X.@+X.X.X.@+%+.+X..+#+#+#+#+#+#+#+#+#+#+#+#+#+#+#+#+#+#+#+#+#+#+#+#+#+#+#+#+#+#+#+#+#+#+#+#+#+#+#+#+#+#+#+#+#+#+#+#+#+#+#+#+#+#+"};
