/* XPM */
static char * clock_xpm[] = {
"64 64 194 2",
"  	c None",
". 	c #3B547D",
"+ 	c #38517A",
"@ 	c #38517B",
"# 	c #38527A",
"$ 	c #38527B",
"% 	c #354E78",
"& 	c #354E79",
"* 	c #354F79",
"= 	c #354F78",
"- 	c #334C76",
"; 	c #334B77",
"> 	c #334C77",
", 	c #334B76",
"' 	c #2F4974",
") 	c #2F4975",
"! 	c #2F4A74",
"~ 	c #2F4A75",
"{ 	c #2C4672",
"] 	c #2C4673",
"^ 	c #2C4772",
"/ 	c #2C4773",
"( 	c #294470",
"_ 	c #294370",
": 	c #29446F",
"< 	c #29436F",
"[ 	c #27416E",
"} 	c #27416D",
"| 	c #27406E",
"1 	c #27406D",
"2 	c #233E6B",
"3 	c #233F6C",
"4 	c #233E6C",
"5 	c #233F6B",
"6 	c #203C69",
"7 	c #203B69",
"8 	c #203C6A",
"9 	c #203B6A",
"0 	c #1D3967",
"a 	c #1D3867",
"b 	c #1D3968",
"c 	c #1D3868",
"d 	c #1A3765",
"e 	c #062355",
"f 	c #062356",
"g 	c #052355",
"h 	c #062255",
"i 	c #062252",
"j 	c #062152",
"k 	c #052252",
"l 	c #062253",
"m 	c #062153",
"n 	c #052253",
"o 	c #06214F",
"p 	c #05214F",
"q 	c #062150",
"r 	c #062050",
"s 	c #06204F",
"t 	c #052150",
"u 	c #051F4C",
"v 	c #06204C",
"w 	c #061F4C",
"x 	c #06204D",
"y 	c #061F4D",
"z 	c #05204C",
"A 	c #05204D",
"B 	c #051E49",
"C 	c #051F49",
"D 	c #061E49",
"E 	c #061F49",
"F 	c #061E4A",
"G 	c #061F4A",
"H 	c #051E4A",
"I 	c #051F4A",
"J 	c #061E46",
"K 	c #051E46",
"L 	c #061E47",
"M 	c #051D46",
"N 	c #051E47",
"O 	c #061D47",
"P 	c #061D46",
"Q 	c #051D47",
"R 	c #061C43",
"S 	c #051D43",
"T 	c #061C44",
"U 	c #061D43",
"V 	c #051C44",
"W 	c #061D44",
"X 	c #051D44",
"Y 	c #051C43",
"Z 	c #061B40",
"` 	c #051C40",
" .	c #061C41",
"..	c #051C41",
"+.	c #061B41",
"@.	c #061C40",
"#.	c #051B40",
"$.	c #051B41",
"%.	c #061A3E",
"&.	c #051A3E",
"*.	c #061B3E",
"=.	c #051B3D",
"-.	c #061B3D",
";.	c #051A3D",
">.	c #051B3E",
",.	c #061A3D",
"'.	c #06193B",
").	c #061A3B",
"!.	c #051A3A",
"~.	c #051A3B",
"{.	c #05193B",
"].	c #06193A",
"^.	c #061A3A",
"/.	c #05193A",
"(.	c #061838",
"_.	c #061938",
":.	c #051838",
"<.	c #051938",
"[.	c #1C2752",
"}.	c #1B2652",
"|.	c #1B2651",
"1.	c #1C2652",
"2.	c #1A2551",
"3.	c #1B2551",
"4.	c #192451",
"5.	c #192450",
"6.	c #1A2451",
"7.	c #182350",
"8.	c #192350",
"9.	c #17234F",
"0.	c #18234F",
"a.	c #17224F",
"b.	c #17224E",
"c.	c #16214E",
"d.	c #15204D",
"e.	c #141F4C",
"f.	c #141F4D",
"g.	c #14204C",
"h.	c #14204D",
"i.	c #131E4C",
"j.	c #131F4C",
"k.	c #131F4B",
"l.	c #131E4B",
"m.	c #121D4B",
"n.	c #121E4B",
"o.	c #111C4A",
"p.	c #111D4A",
"q.	c #111C4B",
"r.	c #111D4B",
"s.	c #101C4A",
"t.	c #101B49",
"u.	c #101C49",
"v.	c #0F1C49",
"w.	c #0F1B49",
"x.	c #101B4A",
"y.	c #0F1B4A",
"z.	c #0F1A49",
"A.	c #0E1A49",
"B.	c #0E1B49",
"C.	c #0E1B48",
"D.	c #0F1A48",
"E.	c #0F1B48",
"F.	c #0E1A48",
"G.	c #0E1948",
"H.	c #0D1A48",
"I.	c #0D1948",
"J.	c #0D1947",
"K.	c #031041",
"L.	c #031040",
"M.	c #03103F",
"N.	c #030F40",
"O.	c #030F3F",
"P.	c #030F3E",
"Q.	c #030F3D",
"R.	c #030E3C",
"S.	c #030E3D",
"T.	c #030F3C",
"U.	c #030E3B",
"V.	c #030E3A",
"W.	c #030D39",
"X.	c #030E39",
"Y.	c #030D38",
"Z.	c #030E38",
"`.	c #030D37",
" +	c #030C36",
".+	c #030C37",
"++	c #030D36",
"@+	c #030C35",
"#+	c #030D35",
"$+	c #030C34",
"%+	c #030B34",
"&+	c #030B33",
"*+	c #030C33",
"=+	c #030B32",
". . . . . . . . . . . . . . . . . . . . . . . . . . . . . . . . . . . . . . . . . . . . . . . . . . . . . . . . . . . . . . . . ",
"+ @ @ @ # + + @ $ @ @ @ @ $ @ @ @ @ + @ @ @ @ @ $ $ + @ @ @ @ @ @ $ $ @ + @ @ @ @ @ @ # $ @ # + $ @ @ @ @ @ @ @ @ $ # + @ @ @ + ",
"% & * * & = = * % % = & * % * * * & % = = * = * = & * = = = & * & * = & = * & * * % & = & * * & * & % & & & = * = & % % * % % & ",
"- - ; - > - - , ; > , > > > > > - - , - - > > > , - - - > , > > - > - - ; - - > > - > , > - , > - , - - > > - - - > - > > > > - ",
"' ' ) ! ' ' ' ) ' ' ' ' ' ' ' ) ) ! ' ) ) ' ' ' ) ' ' ' ) ' ' ' ' ! ) ' ' ' ' ' ) ' ! ! ' ~ ' ' ~ ' ' ' ' ~ ' ' ' ' ) ' ' ' ) ) ",
"{ ] { { ^ ] { ] ^ { ] { { { ^ { { ^ ^ / { ^ { ] { ] { / { { ^ { { { ^ { { { / { ^ ^ ^ ^ { ^ { { { { { ] { ^ ^ ^ { ^ { { { ^ / { ",
"( ( _ ( ( : ( _ ( _ _ _ : _ ( _ ( _ _ _ ( ( _ ( ( ( ( ( _ _ ( ( ( ( _ _ _ ( _ ( _ _ : _ ( ( ( _ ( _ _ _ ( ( ( _ ( ( ( ( ( < _ _ ",
"[ [ } [ } [ [ } [ [ [ | | [ [ [ [ [ [ [ } [ [ } 1 [ [ [ | 1 [ } } [ [ [ 1 } [ } } [ [ [ } [ [ [ [ [ [ [ [ [ } [ [ | [ } [ [ [ } ",
"2 3 2 4 2 5 2 4 5 4 4 4 4 2 2 2 4 4 2 4 4 2 2 5 2 2 2 2 4 4 4 2 4 2 4 3 4 3 4 4 4 2 4 2 4 2 2 2 5 2 2 4 2 4 4 4 3 5 4 3 3 2 3 2 ",
"6 7 6 8 9 7 7 8 9 7 7 9 7 6 7 8 9 8 7 8 6 6 9 8 7 9 6 6 6 8 9 6 8 7 8 8 6 6 7 6 8 8 9 7 6 8 6 7 7 9 8 8 7 7 8 7 7 9 8 6 9 6 7 6 ",
"0 0 0 0 a a b 0 0 a 0 0 b 0 0 0 a a 0 a a b 0 0 0 b c a c a 0 a a a a 0 0 0 c b 0 0 0 0 c 0 a 0 0 0 0 0 0 a 0 0 0 0 0 b b a 0 b ",
"d d d d d d d d d d d d d d d d d d d d d d d d d d d d d d d d d d d d d d d d d d d d d d d d d d d d d d d d d d d d d d d d ",
"e e f e f e g e e e e e e e e e e e e e e e h e e e f e e e e e e e e e e e e e e e e e e e e e e e e e e e e e e e e e e e e e ",
"i i i i i i i j i i i j k i l i i i k j i k i j m i i k i i j j i k j i i i i i i i i l i l n k n i i i i i i i i i j i i i j n ",
"o p q o o o o r o o q o o o o o o o q s o p o o o o t o o o q o s o o s q q o o o o o q q q q o r o o o o o q o o o o o s o s s ",
"u v v w x w v y v v v v v v u z v w v x w v z v x z v v v z v v A v z w v x v z w z v v v v v v x v v v x u v x x w w y x x w w ",
"B C D E E F G D E E C D C C E H G B D H D E F C E E E E E D D E C E E E E H D F B F I G E E C G G E D E E D D G E C E G E E E E ",
"J J K L J K J M M N M O K O P N N J Q L K N N J N J P M L P M P L M P J P P K L J J J K L M L K O O J L J J J M K J O N P K P P ",
"R S T U V W S X R W Y S R U S U W W V T W R X Y W R W T W U R Y Y X Y U U U T T X X T U S U X W Y W S Y W U T R Y W W V U W S T ",
"Z ` Z  .Z ..+. .@.......Z  .+...Z  .@.#.@...+.+...@. ... ... . .` ..+. .@.#. .` Z .. .` `  . . ...Z +.$. .@.+. .@.`  . ...+.Z +.",
"%.&.*.=.&.-.-.&.%.%.%.*.;.=.;.=.;.>.&.,.>.*.&.>.;.*.-.=.;.=.-.,.=.*.%.=.&.*.>.&.*.*.=.>.*.&.;.*.*.%.*.>.-.>.=.,.*.;.%.*.=.*.%.,.",
"'.).!.~.~.).~.).{.).).{.{.).].~.^.'.'.'.{.).~.~.'.~.).{.{.~.~.'.'.).)./.~.)./.).].~.'.].{.{.{.{.).'.).~.'.~.'.)./.'.'.{.{.).).'.",
"(.(._.:.:.(.<.(.<.:._.:._.<.:.<._.(.<.<._.(._.<.:.(.(.(.:._.<._.:.(.:.(.(._.(.:.(.(._.(.:.(._.<.(.<._.(.(.(.<.(.:.<.:.(.<._.(.:.",
"[.[.[.[.[.[.[.[.[.[.[.[.[.[.[.[.[.[.[.[.[.[.[.[.[.[.[.[.[.[.[.[.[.[.[.[.[.[.[.[.[.[.[.[.[.[.[.[.[.[.[.[.[.[.[.[.[.[.[.[.[.[.[.[.",
"[.[.[.[.[.[.[.[.[.[.[.[.[.[.[.[.[.[.[.[.[.[.[.[.[.[.[.[.[.[.[.[.[.[.[.[.[.[.[.[.[.[.[.[.[.[.[.[.[.[.[.[.[.[.[.[.[.[.[.[.[.[.[.[.",
"[.[.[.[.[.[.[.[.[.[.[.[.[.[.[.[.[.[.[.[.[.[.[.[.[.[.[.[.[.[.[.[.[.[.[.[.[.[.[.[.[.[.[.[.[.[.[.[.[.[.[.[.[.[.[.[.[.[.[.[.[.[.[.[.",
"[.[.[.[.[.[.[.[.[.[.[.[.[.[.[.[.[.[.[.[.[.[.[.[.[.[.[.[.[.[.[.[.[.[.[.[.[.[.[.[.[.[.[.[.[.[.[.[.[.[.[.[.[.[.[.[.[.[.[.[.[.[.[.[.",
"}.}.}.}.}.|.}.|.}.|.1.|.}.}.}.}.}.|.|.|.|.}.}.}.|.|.|.|.}.|.|.|.}.}.}.|.|.1.}.}.}.}.}.|.|.}.}.}.}.}.|.}.}.|.}.|.}.|.|.}.|.}.}.|.",
"2.2.2.2.2.2.2.3.2.2.2.2.2.2.2.2.2.2.2.2.2.2.3.2.2.2.2.2.2.2.2.2.2.2.2.2.2.2.2.2.2.2.2.3.2.3.3.2.2.2.3.3.2.2.2.2.2.2.2.2.2.3.2.2.",
"4.4.4.4.5.4.5.5.6.5.6.6.4.4.4.6.4.4.4.5.4.4.4.5.6.4.4.4.4.4.5.5.4.6.4.4.4.4.4.4.4.5.5.4.4.4.4.5.5.4.5.6.6.5.4.4.5.6.4.6.4.5.4.5.",
"7.7.8.8.7.7.7.7.7.7.7.8.7.7.7.7.7.7.8.7.7.8.8.8.7.7.7.7.7.7.7.7.7.7.7.7.7.7.7.7.8.7.7.7.7.7.7.7.7.7.8.7.7.7.8.7.7.8.7.7.7.8.7.7.",
"9.9.9.9.9.9.9.9.9.0.9.0.9.9.9.0.9.0.9.9.9.9.0.9.9.9.9.9.0.0.9.9.9.9.9.9.9.9.9.9.9.9.9.9.0.9.9.0.9.9.9.9.9.9.9.0.9.9.9.0.0.9.9.0.",
"a.a.a.a.a.b.b.a.a.a.a.b.a.b.b.b.b.a.b.a.a.b.b.a.a.a.b.b.a.b.a.a.a.a.b.a.b.a.b.b.a.a.a.b.a.a.a.a.b.b.b.a.b.b.a.b.b.a.a.b.a.a.a.a.",
"c.c.c.c.c.c.c.c.c.c.c.c.c.c.c.c.c.c.c.c.c.c.c.c.c.c.c.c.c.c.c.c.c.c.c.c.c.c.c.c.c.c.c.c.c.c.c.c.c.c.c.c.c.c.c.c.c.c.c.c.c.c.c.c.",
"d.d.d.d.d.d.d.d.d.d.d.d.d.d.d.d.d.d.d.d.d.d.d.d.d.d.d.d.d.d.d.d.d.d.d.d.d.d.d.d.d.d.d.d.d.d.d.d.d.d.d.d.d.d.d.d.d.d.d.d.d.d.d.d.",
"e.e.e.e.e.e.e.f.e.e.e.e.e.e.e.f.e.e.f.g.e.e.g.e.f.e.e.e.e.f.e.f.e.f.h.f.e.f.f.e.e.e.e.f.e.e.e.e.e.e.f.e.g.f.f.e.f.f.g.f.e.e.f.e.",
"i.i.j.i.j.j.k.i.i.j.i.j.j.j.i.i.j.i.i.j.l.i.i.i.k.i.j.i.i.i.i.j.j.j.l.i.j.l.j.i.j.i.j.l.i.i.j.i.i.i.j.i.i.j.j.i.j.j.i.l.i.j.i.l.",
"m.n.n.n.n.n.m.n.n.n.n.n.m.n.m.m.m.n.n.m.n.n.m.n.m.n.n.m.n.m.m.n.m.m.n.n.n.m.m.n.n.m.n.n.n.n.m.m.n.m.n.n.n.n.n.m.n.m.m.n.n.n.n.n.",
"o.o.o.p.p.q.r.o.p.p.p.o.p.p.p.p.p.o.p.o.p.p.o.p.p.p.p.p.p.o.p.p.p.p.p.p.p.p.p.p.p.o.p.q.o.p.p.o.p.o.o.p.p.o.p.o.p.p.r.o.p.o.p.p.",
"s.s.s.s.s.s.s.s.s.s.s.s.s.s.s.s.s.s.s.s.s.s.s.s.s.s.s.s.s.s.s.s.s.s.s.s.s.s.s.s.s.s.s.s.s.s.s.s.s.s.s.s.s.s.s.s.s.s.s.s.s.s.s.s.",
"t.t.u.s.t.t.s.v.t.t.u.t.t.w.w.t.t.u.x.v.u.t.t.s.t.u.t.w.u.t.t.t.w.u.t.w.s.t.x.t.t.u.u.x.s.s.t.v.y.t.w.u.w.v.u.u.t.x.y.u.t.x.t.t.",
"w.z.A.w.B.w.w.w.C.w.D.z.E.z.F.D.w.w.w.E.B.E.z.z.w.B.z.w.A.z.z.w.z.w.w.w.E.E.z.B.w.z.w.w.A.w.w.w.z.A.w.w.z.w.w.w.D.w.E.E.B.D.w.z.",
"F.G.H.F.F.F.G.I.G.H.G.F.F.F.G.F.G.G.F.F.F.G.I.F.F.F.F.F.F.G.G.F.F.G.G.G.F.F.F.F.F.F.F.G.F.F.F.H.G.G.F.F.F.F.F.G.F.F.G.F.F.F.F.F.",
"J.J.J.J.J.J.J.J.J.J.J.J.J.J.J.J.J.J.J.J.J.J.J.J.J.J.J.J.J.J.J.J.J.J.J.J.J.J.J.J.J.J.J.J.J.J.J.J.J.J.J.J.J.J.J.J.J.J.J.J.J.J.J.J.",
"K.L.L.K.L.L.L.L.L.K.L.L.L.L.L.L.L.L.L.L.L.L.L.L.L.L.L.L.K.L.L.L.L.L.L.L.L.L.L.L.L.L.L.L.L.L.L.L.L.L.L.L.L.L.K.L.L.L.L.L.L.L.L.L.",
"L.L.M.N.M.L.M.O.O.M.M.O.O.O.O.N.M.M.M.O.M.M.O.N.M.N.M.M.M.L.O.O.L.O.M.M.M.M.M.M.O.M.O.M.M.M.M.M.L.O.N.O.M.M.M.M.M.O.M.M.O.O.M.L.",
"O.P.P.P.P.P.P.O.P.P.O.O.P.O.P.P.P.P.O.O.P.P.P.P.O.P.O.P.P.P.O.P.P.O.P.P.P.O.P.O.P.O.P.P.P.O.P.P.P.P.P.O.P.P.P.O.O.P.P.P.P.P.O.P.",
"Q.P.Q.Q.Q.Q.Q.Q.P.P.Q.P.P.Q.Q.Q.P.Q.Q.Q.Q.Q.P.Q.Q.Q.Q.Q.P.P.P.Q.Q.Q.P.P.P.P.P.Q.Q.P.Q.Q.Q.Q.Q.P.P.Q.P.P.Q.Q.P.Q.P.Q.P.P.Q.Q.Q.Q.",
"R.Q.S.R.T.T.R.R.T.Q.S.T.S.Q.S.S.R.T.T.R.S.Q.T.T.R.T.Q.Q.Q.R.R.T.R.Q.S.T.T.T.R.R.T.S.Q.Q.T.R.T.Q.Q.T.S.T.R.R.Q.Q.T.R.Q.R.Q.T.R.T.",
"R.R.R.R.R.R.R.R.R.R.R.R.R.R.R.R.R.R.R.R.R.R.R.R.R.R.R.R.R.R.R.R.R.R.R.R.R.R.R.R.R.R.R.R.R.R.R.R.R.R.R.R.R.R.R.R.R.R.R.R.R.R.R.R.",
"U.U.U.U.U.U.U.U.U.U.U.U.U.U.U.U.U.U.U.U.U.U.U.U.U.U.U.U.U.U.U.U.U.U.U.U.U.U.U.U.U.U.U.U.U.U.U.U.U.U.U.U.U.U.U.U.U.U.U.U.U.U.U.U.",
"V.V.V.V.V.V.V.V.V.V.V.V.V.V.V.V.V.V.V.V.V.V.V.V.V.V.V.V.V.V.V.V.V.V.V.V.V.V.V.V.V.V.V.V.V.V.V.V.V.V.V.V.V.V.V.V.V.V.V.V.V.V.V.V.",
"W.X.X.X.W.X.X.X.X.X.X.X.X.W.X.X.X.W.X.X.X.X.W.X.X.X.W.X.X.X.X.X.X.X.X.X.X.X.X.X.X.X.X.X.X.X.W.X.X.X.X.X.X.W.X.X.X.X.W.X.X.W.X.X.",
"Y.Y.Z.Y.Y.Y.Y.Y.Y.Y.Y.Y.Y.Y.Y.Y.Y.Z.Y.Y.Y.Y.Z.Y.Y.Y.Z.Z.Y.Y.Y.Y.Y.Y.Y.Z.Y.Y.Y.Y.Y.Y.Y.Y.Z.Y.Y.Y.Y.Y.Z.Y.Z.Y.Y.Y.Y.Y.Y.Y.Y.Y.Y.Y.",
"`.`.`.`.`.`.`.Y.`.`.`.`.`.`.`.`.`.`.`.`.`.`.`.Y.`.Y.`.`.`.`.`.`.`.`.`.`.`.`.`.`.`.`.`.`.`.Y.`.Y.`.`.`.`.`.`.`.`.`.`.`.`.`.`.Y.Y.",
" +.+`.`.++++++`.++`.++++ +++.+++++`.++++++++`.++`.++++.+`.++++`.++++.+`.++++++++++++++.+++++++ +++ +++++`.++`.++`.++++ +++++`..+",
" + + +@+@+@+@+@+++ +@+ + + + +@+@+@+@+ + +@+ + + + +@+#+++ +@+@+#+@+#+ +@+@+#+@+ +@+ + +++@+ +@+@+ +@+@+@+@+++++ +@+@+@+ + + +@+",
"@+@+@+@+@+@+@+@+@+@+@+@+@+@+@+@+@+@+@+@+@+@+@+@+@+@+@+@+@+@+@+@+@+@+@+@+@+@+@+@+@+@+@+@+@+@+@+@+@+@+@+@+@+@+@+@+@+@+@+@+@+@+@+@+",
"$+$+$+$+$+$+$+$+$+$+$+$+$+$+$+$+$+$+$+$+$+$+$+$+%+%+$+$+$+$+$+$+$+%+$+$+$+$+$+$+$+%+$+$+$+$+$+$+$+$+$+$+%+$+$+$+$+$+$+$+$+$+$+$+",
"&+&+&+&+&+&+&+&+*+&+&+&+&+&+&+&+&+&+&+&+*+&+&+&+&+&+&+&+&+&+&+&+*+*+&+&+&+&+&+&+&+&+&+&+&+&+&+&+*+&+&+&+&+&+&+*+&+&+&+&+*+&+&+&+",
"=+=+=+=+=+=+=+=+=+=+=+=+=+=+=+=+=+=+=+=+=+=+=+=+=+=+=+=+=+=+=+=+=+=+=+=+=+=+=+=+=+=+=+=+=+=+=+=+=+=+=+=+=+=+=+=+=+=+=+=+=+=+=+=+",
"=+=+=+=+=+=+=+=+=+=+=+=+=+=+=+=+=+=+=+=+=+=+=+=+=+=+=+=+=+=+=+=+=+=+=+=+=+=+=+=+=+=+=+=+=+=+=+=+=+=+=+=+=+=+=+=+=+=+=+=+=+=+=+=+",
"=+=+=+=+=+=+=+=+=+=+=+=+=+=+=+=+=+=+=+=+=+=+=+=+=+=+=+=+=+=+=+=+=+=+=+=+=+=+=+=+=+=+=+=+=+=+=+=+=+=+=+=+=+=+=+=+=+=+=+=+=+=+=+=+",
"=+=+=+=+=+=+=+=+=+=+=+=+=+=+=+=+=+=+=+=+=+=+=+=+=+=+=+=+=+=+=+=+=+=+=+=+=+=+=+=+=+=+=+=+=+=+=+=+=+=+=+=+=+=+=+=+=+=+=+=+=+=+=+=+"};
